name Walk1.mot
datacolumns 19
datarows 20
range 1.33500000 1.43000000
endheader

                time	   L_ground_force_vx	   L_ground_force_vy	   L_ground_force_vz	   L_ground_force_px	   L_ground_force_py	   L_ground_force_pz	   R_ground_force_vx	   R_ground_force_vy	   R_ground_force_vz	   R_ground_force_px	   R_ground_force_py	   R_ground_force_pz	   L_ground_torque_x	   L_ground_torque_y	   L_ground_torque_z	   R_ground_torque_x	   R_ground_torque_y	   R_ground_torque_z	
          1.33500000	         -0.55312766	         68.52503604	         -5.26563783	         -0.19831359	          0.00000000	         -0.00779083	         -0.00000000	          0.00000000	          0.00000000	          0.00000000	          0.00000000	          0.00000000	          0.00000000	         -0.02984070	          0.00000000	          0.00000000	          0.00000000	          0.00000000	
          1.34000000	         -2.92159971	         96.12257671	         -6.62158712	         -0.25709891	          0.00000000	         -0.01031734	         -0.00000000	          0.00000000	          0.00000000	          0.00000000	          0.00000000	          0.00000000	          0.00000000	         -0.00646943	          0.00000000	          0.00000000	          0.00000000	          0.00000000	
          1.34500000	         -6.25451997	        127.30577483	         -7.91953295	         -0.31712941	          0.00000000	         -0.01298789	         -0.00000000	          0.00000000	         -0.00000000	          0.00000000	          0.00000000	          0.00000000	          0.00000000	          0.03076562	          0.00000000	          0.00000000	          0.00000000	          0.00000000	
          1.35000000	        -10.67540534	        160.37403708	         -8.97321948	         -0.37342747	          0.00000000	         -0.01563096	         -0.00000000	          0.00000000	         -0.00000000	          0.00000000	          0.00000000	         -0.00000000	          0.00000000	          0.08478280	          0.00000000	          0.00000000	          0.00000000	          0.00000000	
          1.35500000	        -16.21353810	        193.36067718	         -9.56258361	         -0.42264978	          0.00000000	         -0.01814779	         -0.00000000	          0.00000000	         -0.00000000	         -0.00000000	          0.00000000	         -0.00000000	          0.00000000	          0.15705794	          0.00000000	          0.00000000	          0.00000000	          0.00000000	
          1.36000000	        -22.72694273	        225.11301315	         -9.50216753	         -0.46319488	          0.00000000	         -0.02050027	         -0.00000000	         -0.00000000	         -0.00000000	         -0.00000000	          0.00000000	         -0.00000000	          0.00000000	          0.24604045	          0.00000000	          0.00000000	          0.00000000	          0.00000000	
          1.36500000	        -29.90023893	        255.39123865	         -8.69844825	         -0.49471265	          0.00000000	         -0.02268226	         -0.00000000	         -0.00000001	         -0.00000000	         -0.00000000	          0.00000000	         -0.00000000	          0.00000000	          0.34661320	          0.00000000	          0.00000000	          0.00000000	          0.00000000	
          1.37000000	        -37.32687991	        284.25116807	         -7.15034082	         -0.51768680	          0.00000000	         -0.02470345	          0.00000000	         -0.00000001	         -0.00000000	         -0.00000000	          0.00000000	         -0.00000000	          0.00000000	          0.45075487	          0.00000000	          0.00000000	          0.00000000	          0.00000000	
          1.37500000	        -44.60705461	        311.79422443	         -4.92437707	         -0.53310091	          0.00000000	         -0.02657740	          0.00000000	         -0.00000002	         -0.00000000	         -0.00000000	          0.00000000	         -0.00000000	          0.00000000	          0.54943856	          0.00000000	          0.00000000	          0.00000000	          0.00000000	
          1.38000000	        -51.44972625	        338.16805647	         -2.13559443	         -0.54219319	          0.00000000	         -0.02830527	          0.00000000	         -0.00000002	         -0.00000000	         -0.00000000	          0.00000000	         -0.00000000	          0.00000000	          0.63565778	          0.00000000	          0.00000000	         -0.00000000	          0.00000000	
          1.38500000	        -57.73958894	        363.51702644	          1.05266710	         -0.54628016	          0.00000000	         -0.02987116	          0.00000000	         -0.00000003	         -0.00000000	         -0.00000000	          0.00000000	         -0.00000000	          0.00000000	          0.70640112	          0.00000000	          0.00000000	         -0.00000000	          0.00000000	
          1.39000000	        -63.51358104	        387.92734588	          4.43028623	         -0.54662463	          0.00000000	         -0.03125610	          0.00000000	         -0.00000004	         -0.00000000	         -0.00000000	          0.00000000	         -0.00000000	          0.00000000	          0.76255955	          0.00000000	          0.00000000	         -0.00000000	          0.00000000	
          1.39500000	        -68.85993213	        411.47686986	          7.77816194	         -0.54434874	          0.00000000	         -0.03244812	          0.00000001	         -0.00000005	         -0.00000000	         -0.00000000	          0.00000000	         -0.00000000	          0.00000000	          0.80766208	          0.00000000	          0.00000000	         -0.00000000	          0.00000000	
          1.40000000	        -73.82643969	        434.31264156	         10.91406995	         -0.54039563	          0.00000000	         -0.03344360	          0.00000001	         -0.00000006	         -0.00000000	         -0.00000000	          0.00000000	         -0.00000000	          0.00000000	          0.84671427	          0.00000000	          0.00000000	         -0.00000000	          0.00000000	
          1.40500000	        -78.39298032	        456.64223592	         13.70056253	         -0.53552229	          0.00000000	         -0.03424401	          0.00000001	         -0.00000006	         -0.00000000	         -0.00000000	          0.00000000	         -0.00000000	          0.00000000	          0.88536900	          0.00000000	          0.00000000	         -0.00000000	          0.00000000	
          1.41000000	        -82.49517908	        478.62815586	         16.03362522	         -0.53030896	          0.00000000	         -0.03485424	          0.00000001	         -0.00000007	         -0.00000000	         -0.00000000	          0.00000000	         -0.00000000	          0.00000000	          0.92936487	          0.00000000	          0.00000000	         -0.00000000	          0.00000000	
          1.41500000	        -86.06230920	        500.28972522	         17.84747887	         -0.52517743	          0.00000000	         -0.03528421	          0.00000001	         -0.00000006	          0.00000000	         -0.00000000	          0.00000000	         -0.00000000	          0.00000000	          0.98369291	          0.00000000	          0.00000000	         -0.00000000	          0.00000000	
          1.42000000	        -89.03757897	        521.49093340	         19.13385238	         -0.52041139	          0.00000000	         -0.03554988	          0.00000001	         -0.00000004	          0.00000000	         -0.00000000	          0.00000000	         -0.00000000	          0.00000000	          1.05155847	          0.00000000	          0.00000000	         -0.00000000	          0.00000000	
          1.42500000	        -91.37733408	        541.98917776	         19.94723643	         -0.51618064	          0.00000000	         -0.03567531	          0.00000001	         -0.00000001	          0.00000001	          0.00000000	          0.00000000	          0.00000000	          0.00000000	          1.13296964	          0.00000000	          0.00000000	         -0.00000000	          0.00000000	
          1.43000000	        -93.04766850	        561.50327360	         20.38302298	         -0.51256606	          0.00000000	         -0.03568995	          0.00000001	          0.00000005	          0.00000001	          0.00000000	          0.00000000	          0.00000000	          0.00000000	          1.22503284	          0.00000000	          0.00000000	         -0.00000000	          0.00000000	
